<?xml version="1.0" encoding="utf-8"?>
<!-- Generator: Adobe Illustrator 24.1.0, SVG Export Plug-In . SVG Version: 6.00 Build 0)  -->
<svg version="1.0" id="Layer_1" xmlns="http://www.w3.org/2000/svg" xmlns:xlink="http://www.w3.org/1999/xlink" x="0px" y="0px"
	 viewBox="0 0 816.396 366.725" style="enable-background:new 0 0 816.396 366.725;" xml:space="preserve">
<style type="text/css">
	.st0{fill:#CBD5ED;}
	.st1{font-family:'IBMPlexSans';}
	.st2{font-size:12px;}
	.st3{fill-rule:evenodd;clip-rule:evenodd;fill:#CBD5ED;}
	.st4{fill:none;stroke:#BCBEC0;stroke-miterlimit:10;}
	.st5{fill:#BCBEC0;}
	.st6{fill:#E6EDA9;}
	.st7{fill:#C9D3D2;}
</style>
<ellipse class="st0" cx="123.736" cy="239.088" rx="85.528" ry="41.209"/>
<text transform="matrix(1 0 0 1 70.767 244.0329)" class="st1 st2">BROWSER /CLIENT</text>
<text transform="matrix(1 0 0 1 249.6157 234.0501)" class="st1 st2">1. Request web page</text>
<text transform="matrix(1 0 0 1 249.6157 299.0256)" class="st1 st2">7. Return web page</text>
<text transform="matrix(1 0 0 1 307.283 198.8549)" class="st1 st2">4. Authenticate client</text>
<text transform="matrix(1 0 0 1 142.5195 56.3038)" class="st1 st2">3. Submit login</text>
<text transform="matrix(1 0 0 1 368.0195 40.8232)"><tspan x="0" y="0" class="st1 st2">2. Redirect browser to</tspan><tspan x="0" y="14.4" class="st1 st2">     OIDC provider</tspan></text>
<text transform="matrix(1 0 0 1 564.0677 234.4105)" class="st1 st2">6. Propagate JWT, get resources</text>
<g id="Mobile">
	<g id="icon_x2F_user_x2F_person_x2F_32" transform="translate(44.000000, 47.500000)">
		<g id="icon-color">
			<path id="path-1_1_" class="st3" d="M-5.766,291.565h-11.052c-3.048-0.009-5.517-2.478-5.526-5.526v-19.341
				c-3.048-0.009-5.517-2.478-5.526-5.526v-16.578c-0.041-2.211,0.82-4.342,2.383-5.906s3.695-2.424,5.906-2.383h16.578
				c2.211-0.041,4.342,0.82,5.906,2.383s2.424,3.695,2.383,5.906v16.578c-0.009,3.048-2.478,5.517-5.526,5.526v19.341
				C-0.25,289.087-2.718,291.556-5.766,291.565z M-19.581,241.832c-0.746-0.045-1.475,0.232-2.003,0.76
				c-0.528,0.528-0.805,1.257-0.76,2.003v16.578h5.526v24.867h11.052v-24.867h5.526v-16.578c0.045-0.746-0.232-1.475-0.76-2.003
				c-0.528-0.528-1.257-0.805-2.003-0.76H-19.581z M-11.292,233.543c-6.104,0-11.052-4.948-11.052-11.052
				s4.948-11.052,11.052-11.052s11.052,4.948,11.052,11.052l0,0C-0.258,228.587-5.196,233.525-11.292,233.543z M-11.292,216.965
				c-3.052,0-5.526,2.474-5.526,5.526s2.474,5.526,5.526,5.526s5.526-2.474,5.526-5.526l0,0
				C-5.775,219.443-8.244,216.974-11.292,216.965L-11.292,216.965z"/>
		</g>
	</g>
</g>
<g>
	<g>
		<line class="st4" x1="208.762" y1="239.088" x2="431.843" y2="239.088"/>
		<g>
			<polygon class="st5" points="430.384,244.074 439.02,239.088 430.384,234.102 			"/>
		</g>
	</g>
</g>
<g>
	<g>
		<line class="st4" x1="565.347" y1="192.332" x2="652.049" y2="192.332"/>
		<g>
			<polygon class="st5" points="566.806,197.318 558.171,192.332 566.806,187.345 			"/>
		</g>
		<g>
			<polygon class="st5" points="650.59,197.318 659.225,192.332 650.59,187.345 			"/>
		</g>
	</g>
</g>
<g>
	<g>
		<line class="st4" x1="565.347" y1="270.259" x2="652.049" y2="270.259"/>
		<g>
			<polygon class="st5" points="566.806,275.245 558.171,270.259 566.806,265.272 			"/>
		</g>
		<g>
			<polygon class="st5" points="650.59,275.245 659.225,270.259 650.59,265.272 			"/>
		</g>
	</g>
</g>
<g>
	<g>
		<polyline class="st4" points="123.736,197.879 123.736,60.798 243.365,60.798 		"/>
		<g>
			<polygon class="st5" points="241.906,65.785 250.542,60.798 241.906,55.812 			"/>
		</g>
	</g>
</g>
<g>
	<g>
		<polyline class="st4" points="499.185,188.892 499.185,60.049 354.329,60.049 		"/>
		<g>
			<polygon class="st5" points="355.788,55.063 347.153,60.049 355.788,65.036 			"/>
		</g>
	</g>
</g>
<g>
	<g>
		<polyline class="st4" points="298.473,84.764 298.473,203.094 431.848,203.094 		"/>
		<g>
			<polygon class="st5" points="430.389,208.08 439.024,203.094 430.389,198.108 			"/>
		</g>
	</g>
</g>
<path class="st6" d="M337.181,85.767h-76.63c-4.682,0-8.512-3.83-8.512-8.512V39.295c0-4.681,3.83-8.512,8.512-8.512h76.63
	c4.681,0,8.512,3.83,8.512,8.512v37.961C345.693,81.937,341.863,85.767,337.181,85.767z"/>
<path class="st7" d="M544.047,278.92h-90.766c-6.882,0-12.513-5.631-12.513-12.513v-71.08c0-6.882,5.631-12.513,12.513-12.513
	h90.766c6.882,0,12.513,5.631,12.513,12.513v71.08C556.559,273.289,550.929,278.92,544.047,278.92z"/>
<path class="st7" d="M779.144,206.061H668.561c-3.925,0-7.136-3.211-7.136-7.136v-14.716c0-3.925,3.211-7.136,7.136-7.136h110.583
	c3.925,0,7.136,3.211,7.136,7.136v14.716C786.28,202.85,783.069,206.061,779.144,206.061z"/>
<text transform="matrix(1 0 0 1 284.6449 53.057)"><tspan x="0" y="0" class="st1 st2">OIDC</tspan><tspan x="-14.742" y="14.4" class="st1 st2">PROVIDER</tspan></text>
<text transform="matrix(1 0 0 1 461.2339 241.0012)"><tspan x="0" y="0" class="st1 st2">APPLICATION</tspan><tspan x="0" y="19.4" class="st1 st2">5. Create JWT </tspan></text>
<text transform="matrix(1 0 0 1 675.3282 195.8855)" class="st1 st2">MICROSERVICE 1 </text>
<path class="st7" d="M779.144,284.034H668.561c-3.925,0-7.136-3.211-7.136-7.136v-14.716c0-3.925,3.211-7.136,7.136-7.136h110.583
	c3.925,0,7.136,3.211,7.136,7.136v14.716C786.28,280.823,783.069,284.034,779.144,284.034z"/>
<text transform="matrix(1 0 0 1 675.3282 273.8588)" class="st1 st2">MICROSERVICE 2</text>
<image style="overflow:visible;" width="55" height="40" xlink:href="docs_openliberty_logo.png"  transform="matrix(0.6386 0 0 0.6386 483.0319 196.3985)">
</image>
<g>
	<g>
		<polyline class="st4" points="123.736,280.297 123.736,304.106 498.593,304.106 498.593,286.697 		"/>
		<g>
			<polygon class="st5" points="503.579,288.156 498.593,279.52 493.607,288.156 			"/>
		</g>
	</g>
</g>
</svg>
